<svg id="darkeye_Light" xmlns="http://www.w3.org/2000/svg" width="68" height="33" viewBox="0 0 68 33">
  <path id="Path_21555" data-name="Path 21555" d="M0,0H68V33H0Z" fill="none"/>
  <path id="Path_21552" data-name="Path 21552" d="M40.722,19.548A5.848,5.848,0,0,0,46.471,13.6a5.752,5.752,0,1,0-11.5,0A5.848,5.848,0,0,0,40.722,19.548Z" fill="#db0316"/>
  <path id="Path_21553" data-name="Path 21553" d="M40.521,17.041a4.164,4.164,0,0,0,4.094-4.231,4.1,4.1,0,1,0-8.187,0A4.164,4.164,0,0,0,40.521,17.041Z"/>
  <path id="Path_21554" data-name="Path 21554" d="M0,0S39.14,1.3,59.071,9.975L68,23.212,39.592,33l-15.6-21.814L41.125,25.822l10.641-5.874S37.7,10.441,0,0Z" fill="#fff"/>
</svg>
